HIERARCHY
ROOT Hips
{
	OFFSET 0.00000 0.00000 0.00000
	CHANNELS 6 Xposition Yposition Zposition Yrotation Zrotation Xrotation 
	JOINT Lumbar
	{
		OFFSET 0 0 0
		CHANNELS 3 Zrotation Xrotation Yrotation
		JOINT Neck
		{
			OFFSET 0.00 0.2701 0.00
			CHANNELS 3 Zrotation Xrotation Yrotation
			End Site
			{
				OFFSET 0.00 0.1379 0.00
			}
		}
		JOINT RightShoulder
		{
			OFFSET 0.0119 0.2289 0.1181
			CHANNELS 3 Zrotation Xrotation Yrotation
			JOINT RightElbow
			{
				OFFSET 0.00 -0.1475 0.00
				CHANNELS 2 Zrotation Yrotation
				JOINT RightWrist
				{
					OFFSET 0.00 -0.1605 0.00
					CHANNELS 2 Zrotation Xrotation
					End Site
					{
						OFFSET 0.0040 -0.1068 0.0006
					}
				}
			}
		}
		JOINT LeftShoulder
		{
			OFFSET 0.0119 0.2289 -0.1181
			CHANNELS 3 Zrotation Xrotation Yrotation
			JOINT LeftElbow
			{
				OFFSET 0.00 -0.1475 0.00
				CHANNELS 2 Zrotation Yrotation
				JOINT LeftWrist
				{
					OFFSET 0.00 -0.1605 0.00
					CHANNELS 2 Zrotation Xrotation
					End Site
					{
						OFFSET 0.0040 -0.1068 -0.0006
					}
				}
			}
		}
	}
	JOINT RightHip
	{
		OFFSET 0.0316 -0.0424 0.0458
		CHANNELS 3 Zrotation Xrotation Yrotation
		JOINT RightKnee
		{
			OFFSET 0.00 -0.2438 0.00
			CHANNELS 1 Zrotation
			JOINT RightAnkle
			{
				OFFSET 0.00 -0.2449 0.00
				CHANNELS 3 Zrotation Xrotation Yrotation
				End Site
				{
					OFFSET 0.1237 -0.0542 0.0051
				}
			}
		}
	}
	JOINT LeftHip
	{
		OFFSET 0.0316 -0.0424 -0.0458
		CHANNELS 3 Zrotation Xrotation Yrotation
		JOINT LeftKnee
		{
			OFFSET 0.00 -0.2438 0.00
			CHANNELS 1 Zrotation
			JOINT LeftAnkle
			{
				OFFSET 0.00 -0.2449 0.00
				CHANNELS 3 Zrotation Xrotation Yrotation
				End Site
				{
					OFFSET 0.1237 -0.0542 -0.0051
				}
			}
		}
	}
}
MOTION
Frames: 19
Frame Time: 0.02
1.26697 0.18057 0.12045 -18.81114 -31.84184 17.49696 -52.92831 12.98625 1.67289 -37.29148 -4.47147 -2.11993 108.04618 3.04869 29.54907 11.40008 78.41538 -12.27094 -0.65802 86.28013 23.37896 -55.24142 37.92182 -82.07239 -10.80363 2.05567 69.17489 -20.96292 14.5042 -66.46971 -5.8899 -2.84678 -3.57945 57.9365 -0.79367 19.81511 -63.94405 -6.66608 3.99504 4.17546
1.26719 0.18105 0.12066 -16.00618 -36.42959 19.45606 -48.29288 12.73196 1.22637 -39.92562 -5.06335 -2.11994 107.47757 1.87712 31.69313 12.33347 78.4949 -12.43815 -0.41411 86.26042 23.64222 -54.92757 38.35896 -82.00896 -11.08429 1.65501 74.25795 -20.99988 13.88951 -65.7492 -5.92037 -2.80138 -3.55931 62.97223 -0.18235 20.65736 -63.42226 -6.62744 3.93907 4.14641
1.26745 0.18169 0.12092 -11.08567 -44.04612 23.06431 -40.47136 12.45691 0.89698 -42.38252 -5.5619 -2.11994 106.7149 0.63497 34.59091 13.54761 78.65313 -12.58167 -0.09731 86.46641 23.65423 -54.54884 38.69738 -81.92914 -11.3168 1.27175 82.89639 -21.02165 13.28432 -64.6521 -5.98605 -2.74666 -3.5364 71.46079 0.682 22.11146 -62.59709 -6.56495 3.84763 4.09874
1.26768 0.18225 0.12115 -7.29189 -50.03424 25.79354 -34.36788 12.19856 0.51987 -44.87024 -6.09376 -2.11994 106.03724 -0.54938 37.06401 14.6085 78.76327 -12.73361 0.1751 86.57102 23.77923 -54.20989 39.07361 -81.85779 -11.56771 0.89224 89.62342 -21.04827 12.68561 -63.7572 -6.03349 -2.69821 -3.5156 78.09727 1.4037 23.22939 -61.93489 -6.51538 3.77532 4.06114
1.26792 0.18284 0.12141 -2.82426 -57.04394 29.04346 -27.16985 11.91718 0.11212 -47.58571 -6.67008 -2.11994 105.35629 -1.84094 39.90892 15.78518 78.91801 -12.89239 0.49737 86.67331 23.91808 -53.82694 39.47971 -81.78364 -11.83634 0.46032 97.54353 -21.08575 12.03091 -62.73461 -6.08966 -2.64137 -3.49128 85.87912 2.2426 24.58209 -61.17018 -6.45653 3.69024 4.01674
1.26817 0.1834 0.12161 0.73965 -62.65777 31.60618 -21.4826 11.6692 -0.20074 -49.77706 -7.12939 -2.11994 104.64301 -2.92443 42.14878 16.78497 79.00034 -13.03242 0.73222 86.83298 23.96536 -53.52021 39.79963 -81.71106 -12.05509 0.14195 103.84217 -21.09538 11.4996 -61.88848 -6.13619 -2.59912 -3.47333 92.10923 2.89668 25.59438 -60.54725 -6.41219 3.62378 3.98234
1.26849 0.18381 0.12163 1.45016 -63.72766 31.92884 -20.67215 11.60744 -0.2855 -50.57338 -7.28738 -2.11994 103.882 -3.44123 42.53334 17.22165 78.87748 -13.12718 0.70757 87.09631 23.81703 -53.44304 39.91146 -81.64429 -12.15248 0.14551 104.82481 -21.04153 11.30125 -61.60515 -6.14892 -2.60735 -3.47754 93.28031 2.98737 25.5288 -60.36829 -6.40493 3.61164 3.97689
1.26883 0.18417 0.12158 1.16355 -63.29095 31.5008 -21.4912 11.56781 -0.27702 -50.84397 -7.33017 -2.11994 103.09872 -3.74206 42.27955 17.47056 78.67837 -13.20418 0.59207 87.40931 23.5847 -53.44467 39.93882 -81.57995 -12.20019 0.26122 104.06067 -20.9583 11.22972 -61.51388 -6.15073 -2.6296 -3.4878 92.77233 2.88262 25.10071 -60.34475 -6.41421 3.62014 3.98253
1.26917 0.18454 0.12156 1.22159 -63.50952 31.37484 -21.61517 11.45411 -0.30657 -51.34741 -7.4255 -2.11994 102.3316 -4.12579 42.31441 17.80826 78.50531 -13.28934 0.51808 87.69866 23.39227 -53.40779 40.00137 -81.5158 -12.26715 0.31767 104.07701 -20.88182 11.10436 -61.34611 -6.15657 -2.63974 -3.49251 92.98553 2.86036 24.83019 -60.26483 -6.42227 3.62332 3.98541
1.2695 0.18496 0.12157 1.77038 -63.93352 31.45133 -21.46756 11.59183 -0.3498 -51.87189 -7.51686 -2.11994 101.53118 -4.57617 42.38174 18.14147 78.36822 -13.37336 0.44604 87.99974 23.18391 -53.37863 40.07459 -81.44535 -12.34619 0.40882 104.25046 -20.83225 10.96077 -61.12369 -6.16703 -2.67199 -3.50805 93.46575 2.86982 24.60378 -60.11846 -6.40491 3.60948 3.9788
1.26984 0.18526 0.12149 1.08349 -63.5621 30.93097 -22.27556 11.23412 -0.34478 -52.22835 -7.59036 -2.11994 100.79836 -4.8357 42.22044 18.43554 78.1408 -13.45571 0.34705 88.28619 22.9921 -53.35471 40.10603 -81.38919 -12.38932 0.45519 103.66371 -20.72044 10.88809 -61.06068 -6.16551 -2.66388 -3.50361 92.98299 2.76829 24.20065 -60.14607 -6.44224 3.63475 3.99386
1.27023 0.18523 0.12121 -3.2253 -61.09046 28.72449 -25.67389 9.30396 -0.22231 -52.26073 -7.64419 -2.11994 100.25036 -4.61855 41.57828 18.66733 77.65333 -13.53858 0.19722 88.51039 22.8671 -53.30966 40.05006 -81.36909 -12.34232 0.34344 101.14426 -20.43907 10.95462 -61.43549 -6.1274 -2.52131 -3.43273 89.91508 2.36477 23.31475 -60.66352 -6.64852 3.77804 4.07459
1.27064 0.18508 0.12085 -8.67582 -57.90203 25.97302 -29.93337 6.90883 -0.05674 -52.13947 -7.68535 -2.11994 99.77294 -4.21652 40.7278 18.86476 77.08442 -13.61993 0.02202 88.71868 22.76306 -53.26949 39.95425 -81.36418 -12.26201 0.18541 97.94713 -20.0972 11.09198 -61.95825 -6.0785 -2.34102 -3.34319 85.97674 1.86243 22.27453 -61.34405 -6.90562 3.95756 4.17537
1.27103 0.18499 0.12052 -13.30801 -55.21035 23.61261 -33.5783 4.86082 0.08437 -52.08387 -7.73034 -2.11994 99.26984 -3.90098 39.96931 19.07659 76.56943 -13.70213 -0.14186 88.93963 22.64997 -53.23942 39.87216 -81.35383 -12.19884 0.0513 95.21853 -19.78615 11.21484 -62.38508 -6.03858 -2.19131 -3.26879 82.64683 1.43334 21.35859 -61.91942 -7.12475 4.11048 4.2613
1.27143 0.18487 0.1202 -19.2101 -51.76267 20.63586 -38.19912 2.25201 0.25086 -52.03331 -7.77468 -2.11994 98.7414 -3.56918 39.18993 19.28731 75.97334 -13.78479 -0.30486 89.14007 22.53072 -53.16433 39.80489 -81.33615 -12.12422 -0.0969 91.76941 -19.45948 11.27122 -62.93697 -5.98152 -1.9867 -3.16714 78.38222 0.88077 20.20804 -62.62822 -7.40588 4.30596 4.37128
1.27183 0.18478 0.11985 -22.76052 -49.71789 18.80523 -40.9976 0.68574 0.37163 -51.9352 -7.82477 -2.11994 98.27957 -3.22808 38.42591 19.49442 75.53671 -13.86415 -0.47843 89.3781 22.43175 -53.17779 39.69926 -81.33888 -12.06773 -0.22092 89.66234 -19.15207 11.4765 -63.26423 -5.9572 -1.88562 -3.11692 75.85371 0.56089 19.50627 -63.09944 -7.57142 4.4223 4.43646
1.27223 0.18484 0.11947 -19.23307 -51.90494 20.42846 -38.31917 2.24017 0.3714 -51.80915 -7.84298 -2.11994 98.01205 -2.92592 37.6444 19.70165 75.46176 -13.94502 -0.64278 89.72761 22.37073 -53.48113 39.49038 -81.38882 -12.05831 -0.33136 91.60439 -18.90694 12.11577 -62.90739 -6.03051 -2.09394 -3.22029 78.55563 0.93939 20.15157 -62.84344 -7.39049 4.30088 4.36709
1.27264 0.18493 0.11908 -13.35019 -55.50245 23.19935 -33.81181 4.83603 0.3205 -51.63065 -7.87675 -2.11994 97.80365 -2.61883 36.90898 19.90694 75.55311 -14.01463 -0.82349 90.11339 22.33072 -53.86483 39.24591 -81.46536 -12.07184 -0.40549 94.89658 -18.68468 12.89435 -62.32362 -6.13634 -2.40506 -3.37473 83.00192 1.55087 21.24338 -62.34768 -7.09406 4.10031 4.25293
1.27304 0.185 0.11868 -8.74264 -58.34091 25.3452 -30.28878 6.87071 0.28165 -51.43606 -7.93829 -2.11994 97.55076 -2.30162 36.22881 20.11306 75.65338 -14.09058 -1.01604 90.48125 22.292 -54.18021 39.02297 -81.52614 -12.08085 -0.45316 97.46163 -18.45563 13.5821 -61.86096 -6.2243 -2.65961 -3.50112 86.51012 2.03546 22.08546 -61.98167 -6.86029 3.94278 4.16316
